solid OpenSCAD_Model
  facet normal 0.994539 0 -0.104367
    outer loop
      vertex 107.924 2 0.228703
      vertex 107.9 12 0
      vertex 107.924 12 0.228703
    endloop
  endfacet
  facet normal 0.994539 0 -0.104367
    outer loop
      vertex 107.9 12 0
      vertex 107.924 2 0.228703
      vertex 107.9 2 0
    endloop
  endfacet
  facet normal -0.994539 0 -0.104367
    outer loop
      vertex 110.1 2 0
      vertex 110.076 12 0.228703
      vertex 110.1 12 0
    endloop
  endfacet
  facet normal -0.994539 -0 -0.104367
    outer loop
      vertex 110.076 12 0.228703
      vertex 110.1 2 0
      vertex 110.076 2 0.228703
    endloop
  endfacet
  facet normal 0 0 -1
    outer loop
      vertex 108.885 2 1.09397
      vertex 109.115 12 1.09397
      vertex 109.115 2 1.09397
    endloop
  endfacet
  facet normal -0 0 -1
    outer loop
      vertex 109.115 12 1.09397
      vertex 108.885 2 1.09397
      vertex 108.885 12 1.09397
    endloop
  endfacet
  facet normal 0.742874 0 -0.669432
    outer loop
      vertex 108.264 2 0.817459
      vertex 108.11 12 0.646564
      vertex 108.264 12 0.817459
    endloop
  endfacet
  facet normal 0.742874 0 -0.669432
    outer loop
      vertex 108.11 12 0.646564
      vertex 108.264 2 0.817459
      vertex 108.11 2 0.646564
    endloop
  endfacet
  facet normal -0.742874 0 -0.669432
    outer loop
      vertex 109.89 2 0.646564
      vertex 109.736 12 0.817459
      vertex 109.89 12 0.646564
    endloop
  endfacet
  facet normal -0.742874 -0 -0.669432
    outer loop
      vertex 109.736 12 0.817459
      vertex 109.89 2 0.646564
      vertex 109.736 2 0.817459
    endloop
  endfacet
  facet normal -0.865991 0 -0.50006
    outer loop
      vertex 110.005 2 0.44741
      vertex 109.89 12 0.646564
      vertex 110.005 12 0.44741
    endloop
  endfacet
  facet normal -0.865991 -0 -0.50006
    outer loop
      vertex 109.89 12 0.646564
      vertex 110.005 2 0.44741
      vertex 109.89 2 0.646564
    endloop
  endfacet
  facet normal -0.406864 0 -0.913489
    outer loop
      vertex 109.34 2 1.04616
      vertex 109.55 12 0.952627
      vertex 109.55 2 0.952627
    endloop
  endfacet
  facet normal -0.406864 0 -0.913489
    outer loop
      vertex 109.55 12 0.952627
      vertex 109.34 2 1.04616
      vertex 109.34 12 1.04616
    endloop
  endfacet
  facet normal 0.868609 -0 0.495498
    outer loop
      vertex 107.995 2 -0.44741
      vertex 108.025 12 -0.5
      vertex 107.995 12 -0.44741
    endloop
  endfacet
  facet normal 0.868609 0 0.495498
    outer loop
      vertex 108.025 12 -0.5
      vertex 107.995 2 -0.44741
      vertex 108.025 2 -0.5
    endloop
  endfacet
  facet normal 0.865991 0 -0.50006
    outer loop
      vertex 108.11 2 0.646564
      vertex 107.995 12 0.44741
      vertex 108.11 12 0.646564
    endloop
  endfacet
  facet normal 0.865991 0 -0.50006
    outer loop
      vertex 107.995 12 0.44741
      vertex 108.11 2 0.646564
      vertex 107.995 2 0.44741
    endloop
  endfacet
  facet normal 0.951136 0 -0.308772
    outer loop
      vertex 107.995 2 0.44741
      vertex 107.924 12 0.228703
      vertex 107.995 12 0.44741
    endloop
  endfacet
  facet normal 0.951136 0 -0.308772
    outer loop
      vertex 107.924 12 0.228703
      vertex 107.995 2 0.44741
      vertex 107.924 2 0.228703
    endloop
  endfacet
  facet normal 0.406864 0 -0.913489
    outer loop
      vertex 108.45 2 0.952627
      vertex 108.66 12 1.04616
      vertex 108.66 2 1.04616
    endloop
  endfacet
  facet normal 0.406864 0 -0.913489
    outer loop
      vertex 108.66 12 1.04616
      vertex 108.45 2 0.952627
      vertex 108.45 12 0.952627
    endloop
  endfacet
  facet normal 0.207848 0 -0.978161
    outer loop
      vertex 108.66 2 1.04616
      vertex 108.885 12 1.09397
      vertex 108.885 2 1.09397
    endloop
  endfacet
  facet normal 0.207848 0 -0.978161
    outer loop
      vertex 108.885 12 1.09397
      vertex 108.66 2 1.04616
      vertex 108.66 12 1.04616
    endloop
  endfacet
  facet normal 0.587874 0 -0.808953
    outer loop
      vertex 108.264 2 0.817459
      vertex 108.45 12 0.952627
      vertex 108.45 2 0.952627
    endloop
  endfacet
  facet normal 0.587874 0 -0.808953
    outer loop
      vertex 108.45 12 0.952627
      vertex 108.264 2 0.817459
      vertex 108.264 12 0.817459
    endloop
  endfacet
  facet normal -0.951136 0 -0.308772
    outer loop
      vertex 110.076 2 0.228703
      vertex 110.005 12 0.44741
      vertex 110.076 12 0.228703
    endloop
  endfacet
  facet normal -0.951136 -0 -0.308772
    outer loop
      vertex 110.005 12 0.44741
      vertex 110.076 2 0.228703
      vertex 110.005 2 0.44741
    endloop
  endfacet
  facet normal -0.587874 0 -0.808953
    outer loop
      vertex 109.55 2 0.952627
      vertex 109.736 12 0.817459
      vertex 109.736 2 0.817459
    endloop
  endfacet
  facet normal -0.587874 0 -0.808953
    outer loop
      vertex 109.736 12 0.817459
      vertex 109.55 2 0.952627
      vertex 109.55 12 0.952627
    endloop
  endfacet
  facet normal -0.207848 0 -0.978161
    outer loop
      vertex 109.115 2 1.09397
      vertex 109.34 12 1.04616
      vertex 109.34 2 1.04616
    endloop
  endfacet
  facet normal -0.207848 0 -0.978161
    outer loop
      vertex 109.34 12 1.04616
      vertex 109.115 2 1.09397
      vertex 109.115 12 1.09397
    endloop
  endfacet
  facet normal 0.994539 -0 0.104367
    outer loop
      vertex 107.9 2 0
      vertex 107.924 12 -0.228703
      vertex 107.9 12 0
    endloop
  endfacet
  facet normal 0.994539 0 0.104367
    outer loop
      vertex 107.924 12 -0.228703
      vertex 107.9 2 0
      vertex 107.924 2 -0.228703
    endloop
  endfacet
  facet normal 0.951136 -0 0.308772
    outer loop
      vertex 107.924 2 -0.228703
      vertex 107.995 12 -0.44741
      vertex 107.924 12 -0.228703
    endloop
  endfacet
  facet normal 0.951136 0 0.308772
    outer loop
      vertex 107.995 12 -0.44741
      vertex 107.924 2 -0.228703
      vertex 107.995 2 -0.44741
    endloop
  endfacet
  facet normal -0.868609 0 0.495498
    outer loop
      vertex 109.975 2 -0.5
      vertex 110.005 12 -0.44741
      vertex 109.975 12 -0.5
    endloop
  endfacet
  facet normal -0.868609 0 0.495498
    outer loop
      vertex 110.005 12 -0.44741
      vertex 109.975 2 -0.5
      vertex 110.005 2 -0.44741
    endloop
  endfacet
  facet normal -0.951136 0 0.308772
    outer loop
      vertex 110.005 2 -0.44741
      vertex 110.076 12 -0.228703
      vertex 110.005 12 -0.44741
    endloop
  endfacet
  facet normal -0.951136 0 0.308772
    outer loop
      vertex 110.076 12 -0.228703
      vertex 110.005 2 -0.44741
      vertex 110.076 2 -0.228703
    endloop
  endfacet
  facet normal -0.994539 0 0.104367
    outer loop
      vertex 110.076 2 -0.228703
      vertex 110.1 12 0
      vertex 110.076 12 -0.228703
    endloop
  endfacet
  facet normal -0.994539 0 0.104367
    outer loop
      vertex 110.1 12 0
      vertex 110.076 2 -0.228703
      vertex 110.1 2 0
    endloop
  endfacet
  facet normal -1 0 0
    outer loop
      vertex 110.1 2 -3
      vertex 110.1 12 -0.5
      vertex 110.1 12 -3
    endloop
  endfacet
  facet normal -1 -0 0
    outer loop
      vertex 110.1 12 -0.5
      vertex 110.1 2 -3
      vertex 110.1 2 -0.5
    endloop
  endfacet
  facet normal 1 -0 0
    outer loop
      vertex 107.9 2 -0.5
      vertex 107.9 12 -3
      vertex 107.9 12 -0.5
    endloop
  endfacet
  facet normal 1 0 0
    outer loop
      vertex 107.9 12 -3
      vertex 107.9 2 -0.5
      vertex 107.9 2 -3
    endloop
  endfacet
  facet normal 0 0 -1
    outer loop
      vertex 107.9 2 -0.5
      vertex 108.025 12 -0.5
      vertex 108.025 2 -0.5
    endloop
  endfacet
  facet normal -0 0 -1
    outer loop
      vertex 108.025 12 -0.5
      vertex 107.9 2 -0.5
      vertex 107.9 12 -0.5
    endloop
  endfacet
  facet normal 0 0 -1
    outer loop
      vertex 109.975 2 -0.5
      vertex 110.1 12 -0.5
      vertex 110.1 2 -0.5
    endloop
  endfacet
  facet normal -0 0 -1
    outer loop
      vertex 110.1 12 -0.5
      vertex 109.975 2 -0.5
      vertex 109.975 12 -0.5
    endloop
  endfacet
  facet normal 0.994539 0 -0.104367
    outer loop
      vertex 98.094 2 0.228703
      vertex 98.07 12 0
      vertex 98.094 12 0.228703
    endloop
  endfacet
  facet normal 0.994539 0 -0.104367
    outer loop
      vertex 98.07 12 0
      vertex 98.094 2 0.228703
      vertex 98.07 2 0
    endloop
  endfacet
  facet normal -0.994539 0 -0.104367
    outer loop
      vertex 100.27 2 0
      vertex 100.246 12 0.228703
      vertex 100.27 12 0
    endloop
  endfacet
  facet normal -0.994539 -0 -0.104367
    outer loop
      vertex 100.246 12 0.228703
      vertex 100.27 2 0
      vertex 100.246 2 0.228703
    endloop
  endfacet
  facet normal 0 0 -1
    outer loop
      vertex 99.055 2 1.09397
      vertex 99.285 12 1.09397
      vertex 99.285 2 1.09397
    endloop
  endfacet
  facet normal -0 0 -1
    outer loop
      vertex 99.285 12 1.09397
      vertex 99.055 2 1.09397
      vertex 99.055 12 1.09397
    endloop
  endfacet
  facet normal 0.74309 0 -0.669192
    outer loop
      vertex 98.434 2 0.817459
      vertex 98.2801 12 0.646564
      vertex 98.434 12 0.817459
    endloop
  endfacet
  facet normal 0.74309 0 -0.669192
    outer loop
      vertex 98.2801 12 0.646564
      vertex 98.434 2 0.817459
      vertex 98.2801 2 0.646564
    endloop
  endfacet
  facet normal -0.742874 0 -0.669432
    outer loop
      vertex 100.06 2 0.646564
      vertex 99.906 12 0.817459
      vertex 100.06 12 0.646564
    endloop
  endfacet
  facet normal -0.742874 -0 -0.669432
    outer loop
      vertex 99.906 12 0.817459
      vertex 100.06 2 0.646564
      vertex 99.906 2 0.817459
    endloop
  endfacet
  facet normal -0.865991 0 -0.50006
    outer loop
      vertex 100.175 2 0.44741
      vertex 100.06 12 0.646564
      vertex 100.175 12 0.44741
    endloop
  endfacet
  facet normal -0.865991 -0 -0.50006
    outer loop
      vertex 100.06 12 0.646564
      vertex 100.175 2 0.44741
      vertex 100.06 2 0.646564
    endloop
  endfacet
  facet normal -0.406702 0 -0.913561
    outer loop
      vertex 99.5099 2 1.04616
      vertex 99.72 12 0.952627
      vertex 99.72 2 0.952627
    endloop
  endfacet
  facet normal -0.406702 0 -0.913561
    outer loop
      vertex 99.72 12 0.952627
      vertex 99.5099 2 1.04616
      vertex 99.5099 12 1.04616
    endloop
  endfacet
  facet normal 0.86576 -0 0.500459
    outer loop
      vertex 98.1651 2 -0.44741
      vertex 98.1955 12 -0.5
      vertex 98.1651 12 -0.44741
    endloop
  endfacet
  facet normal 0.86576 0 0.500459
    outer loop
      vertex 98.1955 12 -0.5
      vertex 98.1651 2 -0.44741
      vertex 98.1955 2 -0.5
    endloop
  endfacet
  facet normal 0.865991 0 -0.50006
    outer loop
      vertex 98.2801 2 0.646564
      vertex 98.1651 12 0.44741
      vertex 98.2801 12 0.646564
    endloop
  endfacet
  facet normal 0.865991 0 -0.50006
    outer loop
      vertex 98.1651 12 0.44741
      vertex 98.2801 2 0.646564
      vertex 98.1651 2 0.44741
    endloop
  endfacet
  facet normal 0.951008 0 -0.309166
    outer loop
      vertex 98.1651 2 0.44741
      vertex 98.094 12 0.228703
      vertex 98.1651 12 0.44741
    endloop
  endfacet
  facet normal 0.951008 0 -0.309166
    outer loop
      vertex 98.094 12 0.228703
      vertex 98.1651 2 0.44741
      vertex 98.094 2 0.228703
    endloop
  endfacet
  facet normal 0.406702 0 -0.913561
    outer loop
      vertex 98.62 2 0.952627
      vertex 98.8301 12 1.04616
      vertex 98.8301 2 1.04616
    endloop
  endfacet
  facet normal 0.406702 0 -0.913561
    outer loop
      vertex 98.8301 12 1.04616
      vertex 98.62 2 0.952627
      vertex 98.62 12 0.952627
    endloop
  endfacet
  facet normal 0.207937 0 -0.978142
    outer loop
      vertex 98.8301 2 1.04616
      vertex 99.055 12 1.09397
      vertex 99.055 2 1.09397
    endloop
  endfacet
  facet normal 0.207937 0 -0.978142
    outer loop
      vertex 99.055 12 1.09397
      vertex 98.8301 2 1.04616
      vertex 98.8301 12 1.04616
    endloop
  endfacet
  facet normal 0.587874 0 -0.808953
    outer loop
      vertex 98.434 2 0.817459
      vertex 98.62 12 0.952627
      vertex 98.62 2 0.952627
    endloop
  endfacet
  facet normal 0.587874 0 -0.808953
    outer loop
      vertex 98.62 12 0.952627
      vertex 98.434 2 0.817459
      vertex 98.434 12 0.817459
    endloop
  endfacet
  facet normal -0.951136 0 -0.308772
    outer loop
      vertex 100.246 2 0.228703
      vertex 100.175 12 0.44741
      vertex 100.246 12 0.228703
    endloop
  endfacet
  facet normal -0.951136 -0 -0.308772
    outer loop
      vertex 100.175 12 0.44741
      vertex 100.246 2 0.228703
      vertex 100.175 2 0.44741
    endloop
  endfacet
  facet normal -0.587874 0 -0.808953
    outer loop
      vertex 99.72 2 0.952627
      vertex 99.906 12 0.817459
      vertex 99.906 2 0.817459
    endloop
  endfacet
  facet normal -0.587874 0 -0.808953
    outer loop
      vertex 99.906 12 0.817459
      vertex 99.72 2 0.952627
      vertex 99.72 12 0.952627
    endloop
  endfacet
  facet normal -0.207937 0 -0.978142
    outer loop
      vertex 99.285 2 1.09397
      vertex 99.5099 12 1.04616
      vertex 99.5099 2 1.04616
    endloop
  endfacet
  facet normal -0.207937 0 -0.978142
    outer loop
      vertex 99.5099 12 1.04616
      vertex 99.285 2 1.09397
      vertex 99.285 12 1.09397
    endloop
  endfacet
  facet normal 0.951008 -0 0.309166
    outer loop
      vertex 98.094 2 -0.228703
      vertex 98.1651 12 -0.44741
      vertex 98.094 12 -0.228703
    endloop
  endfacet
  facet normal 0.951008 0 0.309166
    outer loop
      vertex 98.1651 12 -0.44741
      vertex 98.094 2 -0.228703
      vertex 98.1651 2 -0.44741
    endloop
  endfacet
  facet normal 0.994539 -0 0.104367
    outer loop
      vertex 98.07 2 0
      vertex 98.094 12 -0.228703
      vertex 98.07 12 0
    endloop
  endfacet
  facet normal 0.994539 0 0.104367
    outer loop
      vertex 98.094 12 -0.228703
      vertex 98.07 2 0
      vertex 98.094 2 -0.228703
    endloop
  endfacet
  facet normal -0.868609 0 0.495498
    outer loop
      vertex 100.145 2 -0.5
      vertex 100.175 12 -0.44741
      vertex 100.145 12 -0.5
    endloop
  endfacet
  facet normal -0.868609 0 0.495498
    outer loop
      vertex 100.175 12 -0.44741
      vertex 100.145 2 -0.5
      vertex 100.175 2 -0.44741
    endloop
  endfacet
  facet normal -0.951136 0 0.308772
    outer loop
      vertex 100.175 2 -0.44741
      vertex 100.246 12 -0.228703
      vertex 100.175 12 -0.44741
    endloop
  endfacet
  facet normal -0.951136 0 0.308772
    outer loop
      vertex 100.246 12 -0.228703
      vertex 100.175 2 -0.44741
      vertex 100.246 2 -0.228703
    endloop
  endfacet
  facet normal -0.994539 0 0.104367
    outer loop
      vertex 100.246 2 -0.228703
      vertex 100.27 12 0
      vertex 100.246 12 -0.228703
    endloop
  endfacet
  facet normal -0.994539 0 0.104367
    outer loop
      vertex 100.27 12 0
      vertex 100.246 2 -0.228703
      vertex 100.27 2 0
    endloop
  endfacet
  facet normal -1 0 0
    outer loop
      vertex 100.27 2 -3
      vertex 100.27 12 -0.5
      vertex 100.27 12 -3
    endloop
  endfacet
  facet normal -1 -0 0
    outer loop
      vertex 100.27 12 -0.5
      vertex 100.27 2 -3
      vertex 100.27 2 -0.5
    endloop
  endfacet
  facet normal 1 -0 0
    outer loop
      vertex 98.07 2 -0.5
      vertex 98.07 12 -3
      vertex 98.07 12 -0.5
    endloop
  endfacet
  facet normal 1 0 0
    outer loop
      vertex 98.07 12 -3
      vertex 98.07 2 -0.5
      vertex 98.07 2 -3
    endloop
  endfacet
  facet normal 0 0 -1
    outer loop
      vertex 98.07 2 -0.5
      vertex 98.1955 12 -0.5
      vertex 98.1955 2 -0.5
    endloop
  endfacet
  facet normal -0 0 -1
    outer loop
      vertex 98.1955 12 -0.5
      vertex 98.07 2 -0.5
      vertex 98.07 12 -0.5
    endloop
  endfacet
  facet normal 0 0 -1
    outer loop
      vertex 100.145 2 -0.5
      vertex 100.27 12 -0.5
      vertex 100.27 2 -0.5
    endloop
  endfacet
  facet normal -0 0 -1
    outer loop
      vertex 100.27 12 -0.5
      vertex 100.145 2 -0.5
      vertex 100.145 12 -0.5
    endloop
  endfacet
  facet normal -1 0 0
    outer loop
      vertex 95 2 -3
      vertex 95 12 4.1
      vertex 95 12 -3
    endloop
  endfacet
  facet normal -1 -0 0
    outer loop
      vertex 95 12 4.1
      vertex 95 2 -3
      vertex 95 2 4.1
    endloop
  endfacet
  facet normal 0 0 1
    outer loop
      vertex 113 12 4.1
      vertex 106.549 7 4.1
      vertex 113 2 4.1
    endloop
  endfacet
  facet normal 0 0 1
    outer loop
      vertex 113 12 4.1
      vertex 106.494 7.52226 4.1
      vertex 106.549 7 4.1
    endloop
  endfacet
  facet normal 0 0 1
    outer loop
      vertex 113 12 4.1
      vertex 106.493 7.52986 4.1
      vertex 106.494 7.52226 4.1
    endloop
  endfacet
  facet normal 0 0 1
    outer loop
      vertex 113 12 4.1
      vertex 106.331 8.0293 4.1
      vertex 106.493 7.52986 4.1
    endloop
  endfacet
  facet normal 0 0 1
    outer loop
      vertex 113 12 4.1
      vertex 106.328 8.03657 4.1
      vertex 106.331 8.0293 4.1
    endloop
  endfacet
  facet normal 0 0 1
    outer loop
      vertex 113 12 4.1
      vertex 106.066 8.49135 4.1
      vertex 106.328 8.03657 4.1
    endloop
  endfacet
  facet normal 0 0 1
    outer loop
      vertex 113 12 4.1
      vertex 106.062 8.49797 4.1
      vertex 106.066 8.49135 4.1
    endloop
  endfacet
  facet normal 0 0 1
    outer loop
      vertex 113 12 4.1
      vertex 106.057 8.50366 4.1
      vertex 106.062 8.49797 4.1
    endloop
  endfacet
  facet normal 0 0 1
    outer loop
      vertex 113 12 4.1
      vertex 105.705 8.89391 4.1
      vertex 106.057 8.50366 4.1
    endloop
  endfacet
  facet normal 0 0 1
    outer loop
      vertex 113 12 4.1
      vertex 105.28 9.20258 4.1
      vertex 105.705 8.89391 4.1
    endloop
  endfacet
  facet normal 0 0 1
    outer loop
      vertex 113 12 4.1
      vertex 105.274 9.20707 4.1
      vertex 105.28 9.20258 4.1
    endloop
  endfacet
  facet normal 0 0 1
    outer loop
      vertex 113 12 4.1
      vertex 105.267 9.21018 4.1
      vertex 105.274 9.20707 4.1
    endloop
  endfacet
  facet normal 0 0 1
    outer loop
      vertex 113 12 4.1
      vertex 104.788 9.42377 4.1
      vertex 105.267 9.21018 4.1
    endloop
  endfacet
  facet normal 0 0 1
    outer loop
      vertex 113 12 4.1
      vertex 104.274 9.53296 4.1
      vertex 104.788 9.42377 4.1
    endloop
  endfacet
  facet normal 0 0 1
    outer loop
      vertex 113 12 4.1
      vertex 104.266 9.53455 4.1
      vertex 104.274 9.53296 4.1
    endloop
  endfacet
  facet normal 0 0 1
    outer loop
      vertex 113 12 4.1
      vertex 103.734 9.53455 4.1
      vertex 104.266 9.53455 4.1
    endloop
  endfacet
  facet normal -0 0 1
    outer loop
      vertex 95 12 4.1
      vertex 103.734 9.53455 4.1
      vertex 113 12 4.1
    endloop
  endfacet
  facet normal 0 0 1
    outer loop
      vertex 103.734 9.53455 4.1
      vertex 95 12 4.1
      vertex 103.726 9.53296 4.1
    endloop
  endfacet
  facet normal 0 0 1
    outer loop
      vertex 95 12 4.1
      vertex 101.934 8.49135 4.1
      vertex 101.938 8.49797 4.1
    endloop
  endfacet
  facet normal 0 0 1
    outer loop
      vertex 95 12 4.1
      vertex 101.506 7.52226 4.1
      vertex 101.507 7.52986 4.1
    endloop
  endfacet
  facet normal 0 0 1
    outer loop
      vertex 101.506 7.52226 4.1
      vertex 95 12 4.1
      vertex 101.451 7 4.1
    endloop
  endfacet
  facet normal 0 0 1
    outer loop
      vertex 101.669 8.0293 4.1
      vertex 95 12 4.1
      vertex 101.507 7.52986 4.1
    endloop
  endfacet
  facet normal 0 0 1
    outer loop
      vertex 101.672 8.03657 4.1
      vertex 95 12 4.1
      vertex 101.669 8.0293 4.1
    endloop
  endfacet
  facet normal 0 0 1
    outer loop
      vertex 101.934 8.49135 4.1
      vertex 95 12 4.1
      vertex 101.672 8.03657 4.1
    endloop
  endfacet
  facet normal 0 0 1
    outer loop
      vertex 101.943 8.50366 4.1
      vertex 95 12 4.1
      vertex 101.938 8.49797 4.1
    endloop
  endfacet
  facet normal 0 0 1
    outer loop
      vertex 102.295 8.89391 4.1
      vertex 95 12 4.1
      vertex 101.943 8.50366 4.1
    endloop
  endfacet
  facet normal 0 0 1
    outer loop
      vertex 102.72 9.20258 4.1
      vertex 95 12 4.1
      vertex 102.295 8.89391 4.1
    endloop
  endfacet
  facet normal 0 0 1
    outer loop
      vertex 102.726 9.20707 4.1
      vertex 95 12 4.1
      vertex 102.72 9.20258 4.1
    endloop
  endfacet
  facet normal 0 0 1
    outer loop
      vertex 102.733 9.21018 4.1
      vertex 95 12 4.1
      vertex 102.726 9.20707 4.1
    endloop
  endfacet
  facet normal 0 0 1
    outer loop
      vertex 103.212 9.42377 4.1
      vertex 95 12 4.1
      vertex 102.733 9.21018 4.1
    endloop
  endfacet
  facet normal 0 0 1
    outer loop
      vertex 103.726 9.53296 4.1
      vertex 95 12 4.1
      vertex 103.212 9.42377 4.1
    endloop
  endfacet
  facet normal -0 0 1
    outer loop
      vertex 106.494 6.47774 4.1
      vertex 113 2 4.1
      vertex 106.549 7 4.1
    endloop
  endfacet
  facet normal -0 0 1
    outer loop
      vertex 106.493 6.47014 4.1
      vertex 113 2 4.1
      vertex 106.494 6.47774 4.1
    endloop
  endfacet
  facet normal -0 0 1
    outer loop
      vertex 106.331 5.9707 4.1
      vertex 113 2 4.1
      vertex 106.493 6.47014 4.1
    endloop
  endfacet
  facet normal -0 0 1
    outer loop
      vertex 106.328 5.96343 4.1
      vertex 113 2 4.1
      vertex 106.331 5.9707 4.1
    endloop
  endfacet
  facet normal -0 0 1
    outer loop
      vertex 106.066 5.50865 4.1
      vertex 113 2 4.1
      vertex 106.328 5.96343 4.1
    endloop
  endfacet
  facet normal -0 0 1
    outer loop
      vertex 106.062 5.50202 4.1
      vertex 113 2 4.1
      vertex 106.066 5.50865 4.1
    endloop
  endfacet
  facet normal -0 0 1
    outer loop
      vertex 106.057 5.49634 4.1
      vertex 113 2 4.1
      vertex 106.062 5.50202 4.1
    endloop
  endfacet
  facet normal -0 0 1
    outer loop
      vertex 105.705 5.10609 4.1
      vertex 113 2 4.1
      vertex 106.057 5.49634 4.1
    endloop
  endfacet
  facet normal -0 0 1
    outer loop
      vertex 105.28 4.79742 4.1
      vertex 113 2 4.1
      vertex 105.705 5.10609 4.1
    endloop
  endfacet
  facet normal -0 0 1
    outer loop
      vertex 105.274 4.79293 4.1
      vertex 113 2 4.1
      vertex 105.28 4.79742 4.1
    endloop
  endfacet
  facet normal -0 0 1
    outer loop
      vertex 105.267 4.78982 4.1
      vertex 113 2 4.1
      vertex 105.274 4.79293 4.1
    endloop
  endfacet
  facet normal -0 0 1
    outer loop
      vertex 104.788 4.57622 4.1
      vertex 113 2 4.1
      vertex 105.267 4.78982 4.1
    endloop
  endfacet
  facet normal -0 0 1
    outer loop
      vertex 104.274 4.46704 4.1
      vertex 113 2 4.1
      vertex 104.788 4.57622 4.1
    endloop
  endfacet
  facet normal -0 0 1
    outer loop
      vertex 104.266 4.46545 4.1
      vertex 113 2 4.1
      vertex 104.274 4.46704 4.1
    endloop
  endfacet
  facet normal -0 0 1
    outer loop
      vertex 103.734 4.46545 4.1
      vertex 113 2 4.1
      vertex 104.266 4.46545 4.1
    endloop
  endfacet
  facet normal 0 0 1
    outer loop
      vertex 95 2 4.1
      vertex 103.734 4.46545 4.1
      vertex 103.726 4.46704 4.1
    endloop
  endfacet
  facet normal 0 0 1
    outer loop
      vertex 95 2 4.1
      vertex 103.726 4.46704 4.1
      vertex 103.212 4.57622 4.1
    endloop
  endfacet
  facet normal 0 0 1
    outer loop
      vertex 95 2 4.1
      vertex 101.934 5.50865 4.1
      vertex 101.672 5.96343 4.1
    endloop
  endfacet
  facet normal 0 0 1
    outer loop
      vertex 95 2 4.1
      vertex 101.506 6.47774 4.1
      vertex 101.451 7 4.1
    endloop
  endfacet
  facet normal 0 0 1
    outer loop
      vertex 95 2 4.1
      vertex 101.451 7 4.1
      vertex 95 12 4.1
    endloop
  endfacet
  facet normal 0 0 1
    outer loop
      vertex 101.506 6.47774 4.1
      vertex 95 2 4.1
      vertex 101.507 6.47014 4.1
    endloop
  endfacet
  facet normal 0 0 1
    outer loop
      vertex 101.507 6.47014 4.1
      vertex 95 2 4.1
      vertex 101.669 5.9707 4.1
    endloop
  endfacet
  facet normal 0 0 1
    outer loop
      vertex 101.669 5.9707 4.1
      vertex 95 2 4.1
      vertex 101.672 5.96343 4.1
    endloop
  endfacet
  facet normal 0 0 1
    outer loop
      vertex 101.934 5.50865 4.1
      vertex 95 2 4.1
      vertex 101.938 5.50202 4.1
    endloop
  endfacet
  facet normal 0 0 1
    outer loop
      vertex 101.938 5.50202 4.1
      vertex 95 2 4.1
      vertex 101.943 5.49634 4.1
    endloop
  endfacet
  facet normal 0 0 1
    outer loop
      vertex 103.734 4.46545 4.1
      vertex 95 2 4.1
      vertex 113 2 4.1
    endloop
  endfacet
  facet normal 0 0 1
    outer loop
      vertex 102.733 4.78982 4.1
      vertex 95 2 4.1
      vertex 103.212 4.57622 4.1
    endloop
  endfacet
  facet normal 0 0 1
    outer loop
      vertex 102.726 4.79293 4.1
      vertex 95 2 4.1
      vertex 102.733 4.78982 4.1
    endloop
  endfacet
  facet normal 0 0 1
    outer loop
      vertex 102.72 4.79742 4.1
      vertex 95 2 4.1
      vertex 102.726 4.79293 4.1
    endloop
  endfacet
  facet normal 0 0 1
    outer loop
      vertex 102.295 5.10609 4.1
      vertex 95 2 4.1
      vertex 102.72 4.79742 4.1
    endloop
  endfacet
  facet normal 0 0 1
    outer loop
      vertex 101.943 5.49634 4.1
      vertex 95 2 4.1
      vertex 102.295 5.10609 4.1
    endloop
  endfacet
  facet normal 1 -0 0
    outer loop
      vertex 113 2 4.1
      vertex 113 12 -3
      vertex 113 12 4.1
    endloop
  endfacet
  facet normal 1 0 0
    outer loop
      vertex 113 12 -3
      vertex 113 2 4.1
      vertex 113 2 -3
    endloop
  endfacet
  facet normal 0 0 -1
    outer loop
      vertex 95 2 -3
      vertex 98.07 12 -3
      vertex 98.07 2 -3
    endloop
  endfacet
  facet normal -0 0 -1
    outer loop
      vertex 98.07 12 -3
      vertex 95 2 -3
      vertex 95 12 -3
    endloop
  endfacet
  facet normal 0 0 -1
    outer loop
      vertex 110.1 2 -3
      vertex 113 12 -3
      vertex 113 2 -3
    endloop
  endfacet
  facet normal -0 0 -1
    outer loop
      vertex 113 12 -3
      vertex 110.1 2 -3
      vertex 110.1 12 -3
    endloop
  endfacet
  facet normal 0 0 -1
    outer loop
      vertex 100.27 2 -3
      vertex 107.9 12 -3
      vertex 107.9 2 -3
    endloop
  endfacet
  facet normal -0 0 -1
    outer loop
      vertex 107.9 12 -3
      vertex 100.27 2 -3
      vertex 100.27 12 -3
    endloop
  endfacet
  facet normal 0 -1 0
    outer loop
      vertex 100.27 2 -3
      vertex 107.9 2 -0.5
      vertex 100.27 2 -0.5
    endloop
  endfacet
  facet normal 0 -1 -0
    outer loop
      vertex 107.9 2 -0.5
      vertex 100.27 2 -3
      vertex 107.9 2 -3
    endloop
  endfacet
  facet normal 0 -1 0
    outer loop
      vertex 108.66 2 1.04616
      vertex 113 2 4.1
      vertex 99.5099 2 1.04616
    endloop
  endfacet
  facet normal 0 -1 0
    outer loop
      vertex 113 2 4.1
      vertex 108.66 2 1.04616
      vertex 108.885 2 1.09397
    endloop
  endfacet
  facet normal 0 -1 0
    outer loop
      vertex 99.72 2 0.952627
      vertex 108.66 2 1.04616
      vertex 99.5099 2 1.04616
    endloop
  endfacet
  facet normal 0 -1 0
    outer loop
      vertex 99.72 2 0.952627
      vertex 108.45 2 0.952627
      vertex 108.66 2 1.04616
    endloop
  endfacet
  facet normal 0 -1 0
    outer loop
      vertex 99.906 2 0.817459
      vertex 108.45 2 0.952627
      vertex 99.72 2 0.952627
    endloop
  endfacet
  facet normal 0 -1 0
    outer loop
      vertex 99.906 2 0.817459
      vertex 108.264 2 0.817459
      vertex 108.45 2 0.952627
    endloop
  endfacet
  facet normal 0 -1 0
    outer loop
      vertex 100.06 2 0.646564
      vertex 108.264 2 0.817459
      vertex 99.906 2 0.817459
    endloop
  endfacet
  facet normal 0 -1 0
    outer loop
      vertex 100.06 2 0.646564
      vertex 108.11 2 0.646564
      vertex 108.264 2 0.817459
    endloop
  endfacet
  facet normal 0 -1 0
    outer loop
      vertex 100.175 2 0.44741
      vertex 108.11 2 0.646564
      vertex 100.06 2 0.646564
    endloop
  endfacet
  facet normal 0 -1 0
    outer loop
      vertex 100.175 2 0.44741
      vertex 107.995 2 0.44741
      vertex 108.11 2 0.646564
    endloop
  endfacet
  facet normal 0 -1 0
    outer loop
      vertex 100.246 2 0.228703
      vertex 107.995 2 0.44741
      vertex 100.175 2 0.44741
    endloop
  endfacet
  facet normal 0 -1 0
    outer loop
      vertex 100.246 2 0.228703
      vertex 107.924 2 0.228703
      vertex 107.995 2 0.44741
    endloop
  endfacet
  facet normal 0 -1 0
    outer loop
      vertex 100.27 2 0
      vertex 107.924 2 0.228703
      vertex 100.246 2 0.228703
    endloop
  endfacet
  facet normal 0 -1 0
    outer loop
      vertex 100.27 2 0
      vertex 107.9 2 0
      vertex 107.924 2 0.228703
    endloop
  endfacet
  facet normal 0 -1 0
    outer loop
      vertex 100.27 2 -0.5
      vertex 100.27 2 0
      vertex 100.246 2 -0.228703
    endloop
  endfacet
  facet normal 0 -1 0
    outer loop
      vertex 100.27 2 0
      vertex 100.27 2 -0.5
      vertex 107.9 2 0
    endloop
  endfacet
  facet normal 0 -1 0
    outer loop
      vertex 100.27 2 -0.5
      vertex 100.246 2 -0.228703
      vertex 100.175 2 -0.44741
    endloop
  endfacet
  facet normal 0 -1 0
    outer loop
      vertex 107.9 2 -0.5
      vertex 107.9 2 0
      vertex 100.27 2 -0.5
    endloop
  endfacet
  facet normal 0 -1 0
    outer loop
      vertex 100.27 2 -0.5
      vertex 100.175 2 -0.44741
      vertex 100.145 2 -0.5
    endloop
  endfacet
  facet normal 0 -1 0
    outer loop
      vertex 107.9 2 0
      vertex 107.9 2 -0.5
      vertex 107.924 2 -0.228703
    endloop
  endfacet
  facet normal 0 -1 -0
    outer loop
      vertex 107.924 2 -0.228703
      vertex 107.9 2 -0.5
      vertex 107.995 2 -0.44741
    endloop
  endfacet
  facet normal 0 -1 -0
    outer loop
      vertex 107.995 2 -0.44741
      vertex 107.9 2 -0.5
      vertex 108.025 2 -0.5
    endloop
  endfacet
  facet normal 0 -1 0
    outer loop
      vertex 99.285 2 1.09397
      vertex 95 2 4.1
      vertex 99.055 2 1.09397
    endloop
  endfacet
  facet normal 0 -1 0
    outer loop
      vertex 95 2 4.1
      vertex 98.8301 2 1.04616
      vertex 99.055 2 1.09397
    endloop
  endfacet
  facet normal 0 -1 0
    outer loop
      vertex 95 2 4.1
      vertex 98.62 2 0.952627
      vertex 98.8301 2 1.04616
    endloop
  endfacet
  facet normal 0 -1 0
    outer loop
      vertex 95 2 4.1
      vertex 98.434 2 0.817459
      vertex 98.62 2 0.952627
    endloop
  endfacet
  facet normal 0 -1 0
    outer loop
      vertex 95 2 4.1
      vertex 98.2801 2 0.646564
      vertex 98.434 2 0.817459
    endloop
  endfacet
  facet normal 0 -1 0
    outer loop
      vertex 95 2 4.1
      vertex 98.1651 2 0.44741
      vertex 98.2801 2 0.646564
    endloop
  endfacet
  facet normal 0 -1 0
    outer loop
      vertex 95 2 4.1
      vertex 98.094 2 0.228703
      vertex 98.1651 2 0.44741
    endloop
  endfacet
  facet normal 0 -1 0
    outer loop
      vertex 95 2 -3
      vertex 98.094 2 0.228703
      vertex 95 2 4.1
    endloop
  endfacet
  facet normal 0 -1 0
    outer loop
      vertex 98.094 2 0.228703
      vertex 95 2 -3
      vertex 98.07 2 0
    endloop
  endfacet
  facet normal -0 -1 0
    outer loop
      vertex 98.07 2 -0.5
      vertex 98.07 2 0
      vertex 95 2 -3
    endloop
  endfacet
  facet normal 0 -1 -0
    outer loop
      vertex 98.094 2 -0.228703
      vertex 98.07 2 -0.5
      vertex 98.1651 2 -0.44741
    endloop
  endfacet
  facet normal 0 -1 0
    outer loop
      vertex 98.07 2 0
      vertex 98.07 2 -0.5
      vertex 98.094 2 -0.228703
    endloop
  endfacet
  facet normal 0 -1 -0
    outer loop
      vertex 98.07 2 -0.5
      vertex 95 2 -3
      vertex 98.07 2 -3
    endloop
  endfacet
  facet normal 0 -1 0
    outer loop
      vertex 99.5099 2 1.04616
      vertex 95 2 4.1
      vertex 99.285 2 1.09397
    endloop
  endfacet
  facet normal 0 -1 0
    outer loop
      vertex 95 2 4.1
      vertex 99.5099 2 1.04616
      vertex 113 2 4.1
    endloop
  endfacet
  facet normal 0 -1 0
    outer loop
      vertex 109.115 2 1.09397
      vertex 113 2 4.1
      vertex 108.885 2 1.09397
    endloop
  endfacet
  facet normal 0 -1 0
    outer loop
      vertex 109.34 2 1.04616
      vertex 113 2 4.1
      vertex 109.115 2 1.09397
    endloop
  endfacet
  facet normal 0 -1 0
    outer loop
      vertex 109.55 2 0.952627
      vertex 113 2 4.1
      vertex 109.34 2 1.04616
    endloop
  endfacet
  facet normal 0 -1 0
    outer loop
      vertex 109.736 2 0.817459
      vertex 113 2 4.1
      vertex 109.55 2 0.952627
    endloop
  endfacet
  facet normal 0 -1 0
    outer loop
      vertex 109.89 2 0.646564
      vertex 113 2 4.1
      vertex 109.736 2 0.817459
    endloop
  endfacet
  facet normal 0 -1 0
    outer loop
      vertex 110.005 2 0.44741
      vertex 113 2 4.1
      vertex 109.89 2 0.646564
    endloop
  endfacet
  facet normal 0 -1 0
    outer loop
      vertex 110.076 2 0.228703
      vertex 113 2 4.1
      vertex 110.005 2 0.44741
    endloop
  endfacet
  facet normal 0 -1 0
    outer loop
      vertex 113 2 -3
      vertex 110.076 2 0.228703
      vertex 110.1 2 0
    endloop
  endfacet
  facet normal 0 -1 0
    outer loop
      vertex 110.1 2 -0.5
      vertex 110.1 2 0
      vertex 110.076 2 -0.228703
    endloop
  endfacet
  facet normal 0 -1 0
    outer loop
      vertex 110.1 2 -0.5
      vertex 110.076 2 -0.228703
      vertex 110.005 2 -0.44741
    endloop
  endfacet
  facet normal 0 -1 0
    outer loop
      vertex 110.1 2 -0.5
      vertex 110.005 2 -0.44741
      vertex 109.975 2 -0.5
    endloop
  endfacet
  facet normal 0 -1 0
    outer loop
      vertex 110.1 2 0
      vertex 110.1 2 -0.5
      vertex 113 2 -3
    endloop
  endfacet
  facet normal 0 -1 0
    outer loop
      vertex 113 2 -3
      vertex 110.1 2 -0.5
      vertex 110.1 2 -3
    endloop
  endfacet
  facet normal 0 -1 0
    outer loop
      vertex 110.076 2 0.228703
      vertex 113 2 -3
      vertex 113 2 4.1
    endloop
  endfacet
  facet normal 0 -1 -0
    outer loop
      vertex 98.1651 2 -0.44741
      vertex 98.07 2 -0.5
      vertex 98.1955 2 -0.5
    endloop
  endfacet
  facet normal 0 1 -0
    outer loop
      vertex 107.9 12 -3
      vertex 100.27 12 -0.5
      vertex 107.9 12 -0.5
    endloop
  endfacet
  facet normal 0 1 0
    outer loop
      vertex 100.27 12 -0.5
      vertex 107.9 12 -3
      vertex 100.27 12 -3
    endloop
  endfacet
  facet normal 0 1 0
    outer loop
      vertex 99.5099 12 1.04616
      vertex 113 12 4.1
      vertex 108.66 12 1.04616
    endloop
  endfacet
  facet normal 0 1 0
    outer loop
      vertex 113 12 4.1
      vertex 99.5099 12 1.04616
      vertex 99.285 12 1.09397
    endloop
  endfacet
  facet normal 0 1 -0
    outer loop
      vertex 108.45 12 0.952627
      vertex 99.5099 12 1.04616
      vertex 108.66 12 1.04616
    endloop
  endfacet
  facet normal 0 1 0
    outer loop
      vertex 108.45 12 0.952627
      vertex 99.72 12 0.952627
      vertex 99.5099 12 1.04616
    endloop
  endfacet
  facet normal 0 1 -0
    outer loop
      vertex 108.264 12 0.817459
      vertex 99.72 12 0.952627
      vertex 108.45 12 0.952627
    endloop
  endfacet
  facet normal 0 1 0
    outer loop
      vertex 108.264 12 0.817459
      vertex 99.906 12 0.817459
      vertex 99.72 12 0.952627
    endloop
  endfacet
  facet normal 0 1 -0
    outer loop
      vertex 108.11 12 0.646564
      vertex 99.906 12 0.817459
      vertex 108.264 12 0.817459
    endloop
  endfacet
  facet normal 0 1 0
    outer loop
      vertex 108.11 12 0.646564
      vertex 100.06 12 0.646564
      vertex 99.906 12 0.817459
    endloop
  endfacet
  facet normal 0 1 -0
    outer loop
      vertex 107.995 12 0.44741
      vertex 100.06 12 0.646564
      vertex 108.11 12 0.646564
    endloop
  endfacet
  facet normal 0 1 0
    outer loop
      vertex 107.995 12 0.44741
      vertex 100.175 12 0.44741
      vertex 100.06 12 0.646564
    endloop
  endfacet
  facet normal 0 1 -0
    outer loop
      vertex 107.924 12 0.228703
      vertex 100.175 12 0.44741
      vertex 107.995 12 0.44741
    endloop
  endfacet
  facet normal 0 1 0
    outer loop
      vertex 107.924 12 0.228703
      vertex 100.246 12 0.228703
      vertex 100.175 12 0.44741
    endloop
  endfacet
  facet normal 0 1 -0
    outer loop
      vertex 107.9 12 0
      vertex 100.246 12 0.228703
      vertex 107.924 12 0.228703
    endloop
  endfacet
  facet normal 0 1 0
    outer loop
      vertex 107.9 12 0
      vertex 100.27 12 0
      vertex 100.246 12 0.228703
    endloop
  endfacet
  facet normal 0 1 0
    outer loop
      vertex 107.9 12 -0.5
      vertex 107.9 12 0
      vertex 107.924 12 -0.228703
    endloop
  endfacet
  facet normal 0 1 0
    outer loop
      vertex 107.9 12 0
      vertex 107.9 12 -0.5
      vertex 100.27 12 0
    endloop
  endfacet
  facet normal 0 1 0
    outer loop
      vertex 107.9 12 -0.5
      vertex 107.924 12 -0.228703
      vertex 107.995 12 -0.44741
    endloop
  endfacet
  facet normal 0 1 0
    outer loop
      vertex 100.27 12 -0.5
      vertex 100.27 12 0
      vertex 107.9 12 -0.5
    endloop
  endfacet
  facet normal 0 1 0
    outer loop
      vertex 107.9 12 -0.5
      vertex 107.995 12 -0.44741
      vertex 108.025 12 -0.5
    endloop
  endfacet
  facet normal 0 1 0
    outer loop
      vertex 100.27 12 0
      vertex 100.27 12 -0.5
      vertex 100.246 12 -0.228703
    endloop
  endfacet
  facet normal 0 1 0
    outer loop
      vertex 100.246 12 -0.228703
      vertex 100.27 12 -0.5
      vertex 100.175 12 -0.44741
    endloop
  endfacet
  facet normal 0 1 0
    outer loop
      vertex 100.175 12 -0.44741
      vertex 100.27 12 -0.5
      vertex 100.145 12 -0.5
    endloop
  endfacet
  facet normal 0 1 0
    outer loop
      vertex 108.885 12 1.09397
      vertex 113 12 4.1
      vertex 109.115 12 1.09397
    endloop
  endfacet
  facet normal 0 1 0
    outer loop
      vertex 113 12 4.1
      vertex 109.34 12 1.04616
      vertex 109.115 12 1.09397
    endloop
  endfacet
  facet normal 0 1 0
    outer loop
      vertex 113 12 4.1
      vertex 109.55 12 0.952627
      vertex 109.34 12 1.04616
    endloop
  endfacet
  facet normal 0 1 0
    outer loop
      vertex 113 12 4.1
      vertex 109.736 12 0.817459
      vertex 109.55 12 0.952627
    endloop
  endfacet
  facet normal 0 1 0
    outer loop
      vertex 113 12 4.1
      vertex 109.89 12 0.646564
      vertex 109.736 12 0.817459
    endloop
  endfacet
  facet normal 0 1 0
    outer loop
      vertex 113 12 4.1
      vertex 110.005 12 0.44741
      vertex 109.89 12 0.646564
    endloop
  endfacet
  facet normal 0 1 0
    outer loop
      vertex 113 12 4.1
      vertex 110.076 12 0.228703
      vertex 110.005 12 0.44741
    endloop
  endfacet
  facet normal 0 1 -0
    outer loop
      vertex 113 12 -3
      vertex 110.076 12 0.228703
      vertex 113 12 4.1
    endloop
  endfacet
  facet normal 0 1 0
    outer loop
      vertex 110.076 12 0.228703
      vertex 113 12 -3
      vertex 110.1 12 0
    endloop
  endfacet
  facet normal -0 1 0
    outer loop
      vertex 110.1 12 -0.5
      vertex 110.1 12 0
      vertex 113 12 -3
    endloop
  endfacet
  facet normal 0 1 0
    outer loop
      vertex 110.076 12 -0.228703
      vertex 110.1 12 -0.5
      vertex 110.005 12 -0.44741
    endloop
  endfacet
  facet normal 0 1 0
    outer loop
      vertex 110.1 12 0
      vertex 110.1 12 -0.5
      vertex 110.076 12 -0.228703
    endloop
  endfacet
  facet normal 0 1 0
    outer loop
      vertex 110.1 12 -0.5
      vertex 113 12 -3
      vertex 110.1 12 -3
    endloop
  endfacet
  facet normal 0 1 0
    outer loop
      vertex 108.66 12 1.04616
      vertex 113 12 4.1
      vertex 108.885 12 1.09397
    endloop
  endfacet
  facet normal 0 1 0
    outer loop
      vertex 113 12 4.1
      vertex 99.285 12 1.09397
      vertex 95 12 4.1
    endloop
  endfacet
  facet normal 0 1 -0
    outer loop
      vertex 99.055 12 1.09397
      vertex 95 12 4.1
      vertex 99.285 12 1.09397
    endloop
  endfacet
  facet normal 0 1 -0
    outer loop
      vertex 98.8301 12 1.04616
      vertex 95 12 4.1
      vertex 99.055 12 1.09397
    endloop
  endfacet
  facet normal 0 1 -0
    outer loop
      vertex 98.62 12 0.952627
      vertex 95 12 4.1
      vertex 98.8301 12 1.04616
    endloop
  endfacet
  facet normal 0 1 -0
    outer loop
      vertex 98.434 12 0.817459
      vertex 95 12 4.1
      vertex 98.62 12 0.952627
    endloop
  endfacet
  facet normal 0 1 -0
    outer loop
      vertex 98.2801 12 0.646564
      vertex 95 12 4.1
      vertex 98.434 12 0.817459
    endloop
  endfacet
  facet normal 0 1 -0
    outer loop
      vertex 98.1651 12 0.44741
      vertex 95 12 4.1
      vertex 98.2801 12 0.646564
    endloop
  endfacet
  facet normal 0 1 -0
    outer loop
      vertex 98.094 12 0.228703
      vertex 95 12 4.1
      vertex 98.1651 12 0.44741
    endloop
  endfacet
  facet normal 0 1 0
    outer loop
      vertex 95 12 -3
      vertex 98.094 12 0.228703
      vertex 98.07 12 0
    endloop
  endfacet
  facet normal 0 1 0
    outer loop
      vertex 98.07 12 -0.5
      vertex 98.07 12 0
      vertex 98.094 12 -0.228703
    endloop
  endfacet
  facet normal 0 1 0
    outer loop
      vertex 98.07 12 -0.5
      vertex 98.094 12 -0.228703
      vertex 98.1651 12 -0.44741
    endloop
  endfacet
  facet normal 0 1 0
    outer loop
      vertex 98.07 12 -0.5
      vertex 98.1651 12 -0.44741
      vertex 98.1955 12 -0.5
    endloop
  endfacet
  facet normal 0 1 0
    outer loop
      vertex 98.07 12 0
      vertex 98.07 12 -0.5
      vertex 95 12 -3
    endloop
  endfacet
  facet normal 0 1 0
    outer loop
      vertex 95 12 -3
      vertex 98.07 12 -0.5
      vertex 98.07 12 -3
    endloop
  endfacet
  facet normal 0 1 0
    outer loop
      vertex 98.094 12 0.228703
      vertex 95 12 -3
      vertex 95 12 4.1
    endloop
  endfacet
  facet normal 0 1 0
    outer loop
      vertex 110.005 12 -0.44741
      vertex 110.1 12 -0.5
      vertex 109.975 12 -0.5
    endloop
  endfacet
  facet normal -0.99439 -0.104721 0.0149158
    outer loop
      vertex 106.549 7 4.1
      vertex 106.494 7.52226 4.1
      vertex 106.45 7 -2.5
    endloop
  endfacet
  facet normal -0.991343 -0.13044 0.0149745
    outer loop
      vertex 106.396 7.50938 -2.5
      vertex 106.494 7.52226 4.1
      vertex 106.493 7.52986 4.1
    endloop
  endfacet
  facet normal -0.994316 -0.105409 0.0149698
    outer loop
      vertex 106.494 7.52226 4.1
      vertex 106.396 7.50938 -2.5
      vertex 106.45 7 -2.5
    endloop
  endfacet
  facet normal -0.750525 0.660674 0.0148942
    outer loop
      vertex 105.982 5.55993 -2.5
      vertex 106.057 5.49634 4.1
      vertex 106.062 5.50202 4.1
    endloop
  endfacet
  facet normal -0.7428 0.669348 0.01489
    outer loop
      vertex 106.057 5.49634 4.1
      vertex 105.982 5.55993 -2.5
      vertex 105.639 5.17929 -2.5
    endloop
  endfacet
  facet normal 0.406632 0.913472 0.0148254
    outer loop
      vertex 102.775 4.87824 -2.5
      vertex 102.733 4.78982 4.1
      vertex 103.243 4.66991 -2.5
    endloop
  endfacet
  facet normal 0.405973 0.913765 0.0148251
    outer loop
      vertex 102.733 4.78982 4.1
      vertex 102.775 4.87824 -2.5
      vertex 102.726 4.79293 4.1
    endloop
  endfacet
  facet normal 0.99439 -0.104721 0.0149158
    outer loop
      vertex 101.55 7 -2.5
      vertex 101.506 7.52226 4.1
      vertex 101.451 7 4.1
    endloop
  endfacet
  facet normal -0.866398 -0.499134 0.0148449
    outer loop
      vertex 106.238 7.9965 -2.5
      vertex 106.328 8.03657 4.1
      vertex 106.066 8.49135 4.1
    endloop
  endfacet
  facet normal -0.994316 0.105409 0.0149698
    outer loop
      vertex 106.396 6.49062 -2.5
      vertex 106.494 6.47774 4.1
      vertex 106.45 7 -2.5
    endloop
  endfacet
  facet normal -0.991343 0.13044 0.0149745
    outer loop
      vertex 106.494 6.47774 4.1
      vertex 106.396 6.49062 -2.5
      vertex 106.493 6.47014 4.1
    endloop
  endfacet
  facet normal -0.99439 0.104721 0.0149158
    outer loop
      vertex 106.494 6.47774 4.1
      vertex 106.549 7 4.1
      vertex 106.45 7 -2.5
    endloop
  endfacet
  facet normal -0.742479 0.669705 0.0148524
    outer loop
      vertex 105.705 5.10609 4.1
      vertex 106.057 5.49634 4.1
      vertex 105.639 5.17929 -2.5
    endloop
  endfacet
  facet normal 0.742479 0.669705 0.0148524
    outer loop
      vertex 102.295 5.10609 4.1
      vertex 102.361 5.17929 -2.5
      vertex 101.943 5.49634 4.1
    endloop
  endfacet
  facet normal 0.866398 0.499134 0.0148449
    outer loop
      vertex 101.934 5.50865 4.1
      vertex 101.762 6.0035 -2.5
      vertex 101.672 5.96343 4.1
    endloop
  endfacet
  facet normal -0.951106 -0.308504 0.0149357
    outer loop
      vertex 106.396 7.50938 -2.5
      vertex 106.493 7.52986 4.1
      vertex 106.331 8.0293 4.1
    endloop
  endfacet
  facet normal -0.924285 -0.381411 0.0149195
    outer loop
      vertex 106.238 7.9965 -2.5
      vertex 106.331 8.0293 4.1
      vertex 106.328 8.03657 4.1
    endloop
  endfacet
  facet normal -0.951108 -0.308497 0.0149351
    outer loop
      vertex 106.331 8.0293 4.1
      vertex 106.238 7.9965 -2.5
      vertex 106.396 7.50938 -2.5
    endloop
  endfacet
  facet normal -0.951106 0.308504 0.0149357
    outer loop
      vertex 106.493 6.47014 4.1
      vertex 106.396 6.49062 -2.5
      vertex 106.331 5.9707 4.1
    endloop
  endfacet
  facet normal -0.587583 0.809028 0.0148487
    outer loop
      vertex 105.705 5.10609 4.1
      vertex 105.639 5.17929 -2.5
      vertex 105.28 4.79742 4.1
    endloop
  endfacet
  facet normal -0.207754 0.978068 0.0148599
    outer loop
      vertex 104.788 4.57622 4.1
      vertex 104.757 4.66991 -2.5
      vertex 104.274 4.46704 4.1
    endloop
  endfacet
  facet normal -0.407225 0.913207 0.0148761
    outer loop
      vertex 104.788 4.57622 4.1
      vertex 105.267 4.78982 4.1
      vertex 104.757 4.66991 -2.5
    endloop
  endfacet
  facet normal -0.405973 0.913765 0.0148251
    outer loop
      vertex 105.225 4.87824 -2.5
      vertex 105.267 4.78982 4.1
      vertex 105.274 4.79293 4.1
    endloop
  endfacet
  facet normal -0.406632 0.913472 0.0148254
    outer loop
      vertex 105.267 4.78982 4.1
      vertex 105.225 4.87824 -2.5
      vertex 104.757 4.66991 -2.5
    endloop
  endfacet
  facet normal 0.207754 0.978068 0.0148599
    outer loop
      vertex 103.726 4.46704 4.1
      vertex 103.243 4.66991 -2.5
      vertex 103.212 4.57622 4.1
    endloop
  endfacet
  facet normal 0.59908 0.800552 0.0147955
    outer loop
      vertex 102.775 4.87824 -2.5
      vertex 102.72 4.79742 4.1
      vertex 102.726 4.79293 4.1
    endloop
  endfacet
  facet normal 0.588055 0.808685 0.0148032
    outer loop
      vertex 102.72 4.79742 4.1
      vertex 102.775 4.87824 -2.5
      vertex 102.361 5.17929 -2.5
    endloop
  endfacet
  facet normal 0 0.99989 0.0148423
    outer loop
      vertex 104.256 4.56342 -2.5
      vertex 103.734 4.46545 4.1
      vertex 104.266 4.46545 4.1
    endloop
  endfacet
  facet normal 0 0.99989 0.0148423
    outer loop
      vertex 103.734 4.46545 4.1
      vertex 104.256 4.56342 -2.5
      vertex 103.744 4.56342 -2.5
    endloop
  endfacet
  facet normal 0.194916 0.980708 0.0148529
    outer loop
      vertex 103.744 4.56342 -2.5
      vertex 103.726 4.46704 4.1
      vertex 103.734 4.46545 4.1
    endloop
  endfacet
  facet normal 0.207887 0.97804 0.0148493
    outer loop
      vertex 103.726 4.46704 4.1
      vertex 103.744 4.56342 -2.5
      vertex 103.243 4.66991 -2.5
    endloop
  endfacet
  facet normal 0.587583 0.809028 0.0148487
    outer loop
      vertex 102.72 4.79742 4.1
      vertex 102.361 5.17929 -2.5
      vertex 102.295 5.10609 4.1
    endloop
  endfacet
  facet normal 0.951106 0.308504 0.0149357
    outer loop
      vertex 101.669 5.9707 4.1
      vertex 101.604 6.49062 -2.5
      vertex 101.507 6.47014 4.1
    endloop
  endfacet
  facet normal 0.951108 0.308497 0.0149351
    outer loop
      vertex 101.669 5.9707 4.1
      vertex 101.762 6.0035 -2.5
      vertex 101.604 6.49062 -2.5
    endloop
  endfacet
  facet normal 0.924285 0.381411 0.0149195
    outer loop
      vertex 101.762 6.0035 -2.5
      vertex 101.669 5.9707 4.1
      vertex 101.672 5.96343 4.1
    endloop
  endfacet
  facet normal 0.750525 0.660674 0.0148942
    outer loop
      vertex 101.943 5.49634 4.1
      vertex 102.018 5.55993 -2.5
      vertex 101.938 5.50202 4.1
    endloop
  endfacet
  facet normal 0.7428 0.669348 0.01489
    outer loop
      vertex 102.018 5.55993 -2.5
      vertex 101.943 5.49634 4.1
      vertex 102.361 5.17929 -2.5
    endloop
  endfacet
  facet normal 0.866398 -0.499134 0.0148449
    outer loop
      vertex 101.762 7.9965 -2.5
      vertex 101.934 8.49135 4.1
      vertex 101.672 8.03657 4.1
    endloop
  endfacet
  facet normal 0 0 1
    outer loop
      vertex 106.396 7.50938 -2.5
      vertex 106.396 6.49062 -2.5
      vertex 106.45 7 -2.5
    endloop
  endfacet
  facet normal 0 0 1
    outer loop
      vertex 106.238 7.9965 -2.5
      vertex 106.396 6.49062 -2.5
      vertex 106.396 7.50938 -2.5
    endloop
  endfacet
  facet normal 0 0 1
    outer loop
      vertex 106.238 7.9965 -2.5
      vertex 106.238 6.0035 -2.5
      vertex 106.396 6.49062 -2.5
    endloop
  endfacet
  facet normal 0 0 1
    outer loop
      vertex 105.982 8.44007 -2.5
      vertex 106.238 6.0035 -2.5
      vertex 106.238 7.9965 -2.5
    endloop
  endfacet
  facet normal 0 0 1
    outer loop
      vertex 105.982 8.44007 -2.5
      vertex 105.982 5.55993 -2.5
      vertex 106.238 6.0035 -2.5
    endloop
  endfacet
  facet normal 0 0 1
    outer loop
      vertex 105.639 8.8207 -2.5
      vertex 105.982 5.55993 -2.5
      vertex 105.982 8.44007 -2.5
    endloop
  endfacet
  facet normal 0 0 1
    outer loop
      vertex 105.639 8.8207 -2.5
      vertex 105.639 5.17929 -2.5
      vertex 105.982 5.55993 -2.5
    endloop
  endfacet
  facet normal 0 0 1
    outer loop
      vertex 105.225 9.12176 -2.5
      vertex 105.639 5.17929 -2.5
      vertex 105.639 8.8207 -2.5
    endloop
  endfacet
  facet normal 0 0 1
    outer loop
      vertex 105.225 9.12176 -2.5
      vertex 105.225 4.87824 -2.5
      vertex 105.639 5.17929 -2.5
    endloop
  endfacet
  facet normal 0 0 1
    outer loop
      vertex 104.757 9.33009 -2.5
      vertex 105.225 4.87824 -2.5
      vertex 105.225 9.12176 -2.5
    endloop
  endfacet
  facet normal 0 0 1
    outer loop
      vertex 104.757 9.33009 -2.5
      vertex 104.757 4.66991 -2.5
      vertex 105.225 4.87824 -2.5
    endloop
  endfacet
  facet normal 0 0 1
    outer loop
      vertex 104.256 9.43658 -2.5
      vertex 104.757 4.66991 -2.5
      vertex 104.757 9.33009 -2.5
    endloop
  endfacet
  facet normal 0 0 1
    outer loop
      vertex 104.256 9.43658 -2.5
      vertex 104.256 4.56342 -2.5
      vertex 104.757 4.66991 -2.5
    endloop
  endfacet
  facet normal -0 0 1
    outer loop
      vertex 103.744 9.43658 -2.5
      vertex 104.256 4.56342 -2.5
      vertex 104.256 9.43658 -2.5
    endloop
  endfacet
  facet normal 0 0 1
    outer loop
      vertex 103.744 9.43658 -2.5
      vertex 103.744 4.56342 -2.5
      vertex 104.256 4.56342 -2.5
    endloop
  endfacet
  facet normal -0 0 1
    outer loop
      vertex 103.243 9.33009 -2.5
      vertex 103.744 4.56342 -2.5
      vertex 103.744 9.43658 -2.5
    endloop
  endfacet
  facet normal 0 0 1
    outer loop
      vertex 103.243 9.33009 -2.5
      vertex 103.243 4.66991 -2.5
      vertex 103.744 4.56342 -2.5
    endloop
  endfacet
  facet normal -0 0 1
    outer loop
      vertex 102.775 9.12176 -2.5
      vertex 103.243 4.66991 -2.5
      vertex 103.243 9.33009 -2.5
    endloop
  endfacet
  facet normal 0 0 1
    outer loop
      vertex 102.775 9.12176 -2.5
      vertex 102.775 4.87824 -2.5
      vertex 103.243 4.66991 -2.5
    endloop
  endfacet
  facet normal -0 0 1
    outer loop
      vertex 102.361 8.8207 -2.5
      vertex 102.775 4.87824 -2.5
      vertex 102.775 9.12176 -2.5
    endloop
  endfacet
  facet normal 0 0 1
    outer loop
      vertex 102.361 8.8207 -2.5
      vertex 102.361 5.17929 -2.5
      vertex 102.775 4.87824 -2.5
    endloop
  endfacet
  facet normal -0 0 1
    outer loop
      vertex 102.018 8.44007 -2.5
      vertex 102.361 5.17929 -2.5
      vertex 102.361 8.8207 -2.5
    endloop
  endfacet
  facet normal 0 0 1
    outer loop
      vertex 102.018 8.44007 -2.5
      vertex 102.018 5.55993 -2.5
      vertex 102.361 5.17929 -2.5
    endloop
  endfacet
  facet normal -0 0 1
    outer loop
      vertex 101.762 7.9965 -2.5
      vertex 102.018 5.55993 -2.5
      vertex 102.018 8.44007 -2.5
    endloop
  endfacet
  facet normal 0 0 1
    outer loop
      vertex 101.762 7.9965 -2.5
      vertex 101.762 6.0035 -2.5
      vertex 102.018 5.55993 -2.5
    endloop
  endfacet
  facet normal -0 0 1
    outer loop
      vertex 101.604 7.50938 -2.5
      vertex 101.762 6.0035 -2.5
      vertex 101.762 7.9965 -2.5
    endloop
  endfacet
  facet normal 0 0 1
    outer loop
      vertex 101.604 7.50938 -2.5
      vertex 101.604 6.49062 -2.5
      vertex 101.762 6.0035 -2.5
    endloop
  endfacet
  facet normal 0 -0 1
    outer loop
      vertex 101.604 6.49062 -2.5
      vertex 101.604 7.50938 -2.5
      vertex 101.55 7 -2.5
    endloop
  endfacet
  facet normal 0.587583 -0.809028 0.0148499
    outer loop
      vertex 102.361 8.8207 -2.5
      vertex 102.72 9.20258 4.1
      vertex 102.295 8.89391 4.1
    endloop
  endfacet
  facet normal -0.407209 -0.913214 0.0148747
    outer loop
      vertex 105.267 9.21018 4.1
      vertex 104.788 9.42377 4.1
      vertex 104.757 9.33009 -2.5
    endloop
  endfacet
  facet normal -0.207772 -0.978064 0.0148585
    outer loop
      vertex 104.757 9.33009 -2.5
      vertex 104.788 9.42377 4.1
      vertex 104.274 9.53296 4.1
    endloop
  endfacet
  facet normal -0.406632 -0.913472 0.0148254
    outer loop
      vertex 105.225 9.12176 -2.5
      vertex 105.267 9.21018 4.1
      vertex 104.757 9.33009 -2.5
    endloop
  endfacet
  facet normal -0.405973 -0.913765 0.0148251
    outer loop
      vertex 105.267 9.21018 4.1
      vertex 105.225 9.12176 -2.5
      vertex 105.274 9.20707 4.1
    endloop
  endfacet
  facet normal -0.742479 -0.669705 0.0148534
    outer loop
      vertex 106.057 8.50366 4.1
      vertex 105.705 8.89391 4.1
      vertex 105.639 8.8207 -2.5
    endloop
  endfacet
  facet normal -0.194916 -0.980708 0.0148529
    outer loop
      vertex 104.256 9.43658 -2.5
      vertex 104.274 9.53296 4.1
      vertex 104.266 9.53455 4.1
    endloop
  endfacet
  facet normal -0.207887 -0.97804 0.0148493
    outer loop
      vertex 104.274 9.53296 4.1
      vertex 104.256 9.43658 -2.5
      vertex 104.757 9.33009 -2.5
    endloop
  endfacet
  facet normal -0.951108 0.308497 0.0149351
    outer loop
      vertex 106.238 6.0035 -2.5
      vertex 106.331 5.9707 4.1
      vertex 106.396 6.49062 -2.5
    endloop
  endfacet
  facet normal -0.924285 0.381411 0.0149195
    outer loop
      vertex 106.331 5.9707 4.1
      vertex 106.238 6.0035 -2.5
      vertex 106.328 5.96343 4.1
    endloop
  endfacet
  facet normal -0.588055 0.808685 0.0148032
    outer loop
      vertex 105.225 4.87824 -2.5
      vertex 105.28 4.79742 4.1
      vertex 105.639 5.17929 -2.5
    endloop
  endfacet
  facet normal -0.59908 0.800552 0.0147955
    outer loop
      vertex 105.28 4.79742 4.1
      vertex 105.225 4.87824 -2.5
      vertex 105.274 4.79293 4.1
    endloop
  endfacet
  facet normal 0.407225 0.913207 0.0148761
    outer loop
      vertex 103.212 4.57622 4.1
      vertex 103.243 4.66991 -2.5
      vertex 102.733 4.78982 4.1
    endloop
  endfacet
  facet normal -0.207887 0.97804 0.0148493
    outer loop
      vertex 104.256 4.56342 -2.5
      vertex 104.274 4.46704 4.1
      vertex 104.757 4.66991 -2.5
    endloop
  endfacet
  facet normal -0.194916 0.980708 0.0148529
    outer loop
      vertex 104.274 4.46704 4.1
      vertex 104.256 4.56342 -2.5
      vertex 104.266 4.46545 4.1
    endloop
  endfacet
  facet normal 0.86601 0.499805 0.0149053
    outer loop
      vertex 101.934 5.50865 4.1
      vertex 102.018 5.55993 -2.5
      vertex 101.762 6.0035 -2.5
    endloop
  endfacet
  facet normal 0.856142 0.516526 0.0149096
    outer loop
      vertex 102.018 5.55993 -2.5
      vertex 101.934 5.50865 4.1
      vertex 101.938 5.50202 4.1
    endloop
  endfacet
  facet normal 0.855797 -0.517098 0.0149096
    outer loop
      vertex 101.934 8.49135 4.1
      vertex 102.018 8.44007 -2.5
      vertex 101.938 8.49797 4.1
    endloop
  endfacet
  facet normal 0.86601 -0.499805 0.0149053
    outer loop
      vertex 102.018 8.44007 -2.5
      vertex 101.934 8.49135 4.1
      vertex 101.762 7.9965 -2.5
    endloop
  endfacet
  facet normal 0.588068 -0.808676 0.0148032
    outer loop
      vertex 102.775 9.12176 -2.5
      vertex 102.72 9.20258 4.1
      vertex 102.361 8.8207 -2.5
    endloop
  endfacet
  facet normal 0.59908 -0.800552 0.0147955
    outer loop
      vertex 102.72 9.20258 4.1
      vertex 102.775 9.12176 -2.5
      vertex 102.726 9.20707 4.1
    endloop
  endfacet
  facet normal -0.59908 -0.800552 0.0147955
    outer loop
      vertex 105.225 9.12176 -2.5
      vertex 105.28 9.20258 4.1
      vertex 105.274 9.20707 4.1
    endloop
  endfacet
  facet normal -0.588068 -0.808676 0.0148032
    outer loop
      vertex 105.28 9.20258 4.1
      vertex 105.225 9.12176 -2.5
      vertex 105.639 8.8207 -2.5
    endloop
  endfacet
  facet normal -0.587583 -0.809028 0.0148499
    outer loop
      vertex 105.639 8.8207 -2.5
      vertex 105.705 8.89391 4.1
      vertex 105.28 9.20258 4.1
    endloop
  endfacet
  facet normal 0.751101 -0.660019 0.0148944
    outer loop
      vertex 102.018 8.44007 -2.5
      vertex 101.943 8.50366 4.1
      vertex 101.938 8.49797 4.1
    endloop
  endfacet
  facet normal 0.742791 -0.669357 0.01489
    outer loop
      vertex 101.943 8.50366 4.1
      vertex 102.018 8.44007 -2.5
      vertex 102.361 8.8207 -2.5
    endloop
  endfacet
  facet normal 0.742479 -0.669705 0.0148534
    outer loop
      vertex 102.361 8.8207 -2.5
      vertex 102.295 8.89391 4.1
      vertex 101.943 8.50366 4.1
    endloop
  endfacet
  facet normal 0.207772 -0.978064 0.0148585
    outer loop
      vertex 103.243 9.33009 -2.5
      vertex 103.726 9.53296 4.1
      vertex 103.212 9.42377 4.1
    endloop
  endfacet
  facet normal 0.407209 -0.913214 0.0148747
    outer loop
      vertex 103.243 9.33009 -2.5
      vertex 103.212 9.42377 4.1
      vertex 102.733 9.21018 4.1
    endloop
  endfacet
  facet normal 0 -0.99989 0.0148423
    outer loop
      vertex 103.744 9.43658 -2.5
      vertex 104.266 9.53455 4.1
      vertex 103.734 9.53455 4.1
    endloop
  endfacet
  facet normal 0 -0.99989 0.0148423
    outer loop
      vertex 104.266 9.53455 4.1
      vertex 103.744 9.43658 -2.5
      vertex 104.256 9.43658 -2.5
    endloop
  endfacet
  facet normal -0.866398 0.499134 0.0148449
    outer loop
      vertex 106.328 5.96343 4.1
      vertex 106.238 6.0035 -2.5
      vertex 106.066 5.50865 4.1
    endloop
  endfacet
  facet normal -0.86601 0.499805 0.0149053
    outer loop
      vertex 105.982 5.55993 -2.5
      vertex 106.066 5.50865 4.1
      vertex 106.238 6.0035 -2.5
    endloop
  endfacet
  facet normal -0.856142 0.516526 0.0149096
    outer loop
      vertex 106.066 5.50865 4.1
      vertex 105.982 5.55993 -2.5
      vertex 106.062 5.50202 4.1
    endloop
  endfacet
  facet normal 0.994316 0.105409 0.0149698
    outer loop
      vertex 101.506 6.47774 4.1
      vertex 101.604 6.49062 -2.5
      vertex 101.55 7 -2.5
    endloop
  endfacet
  facet normal 0.991343 0.13044 0.0149745
    outer loop
      vertex 101.604 6.49062 -2.5
      vertex 101.506 6.47774 4.1
      vertex 101.507 6.47014 4.1
    endloop
  endfacet
  facet normal 0.99439 0.104721 0.0149158
    outer loop
      vertex 101.506 6.47774 4.1
      vertex 101.55 7 -2.5
      vertex 101.451 7 4.1
    endloop
  endfacet
  facet normal 0.924285 -0.381411 0.0149195
    outer loop
      vertex 101.669 8.0293 4.1
      vertex 101.762 7.9965 -2.5
      vertex 101.672 8.03657 4.1
    endloop
  endfacet
  facet normal 0.951108 -0.308497 0.0149351
    outer loop
      vertex 101.762 7.9965 -2.5
      vertex 101.669 8.0293 4.1
      vertex 101.604 7.50938 -2.5
    endloop
  endfacet
  facet normal -0.742791 -0.669357 0.01489
    outer loop
      vertex 105.982 8.44007 -2.5
      vertex 106.057 8.50366 4.1
      vertex 105.639 8.8207 -2.5
    endloop
  endfacet
  facet normal -0.751101 -0.660019 0.0148944
    outer loop
      vertex 106.057 8.50366 4.1
      vertex 105.982 8.44007 -2.5
      vertex 106.062 8.49797 4.1
    endloop
  endfacet
  facet normal -0.855797 -0.517098 0.0149096
    outer loop
      vertex 105.982 8.44007 -2.5
      vertex 106.066 8.49135 4.1
      vertex 106.062 8.49797 4.1
    endloop
  endfacet
  facet normal -0.86601 -0.499805 0.0149053
    outer loop
      vertex 106.066 8.49135 4.1
      vertex 105.982 8.44007 -2.5
      vertex 106.238 7.9965 -2.5
    endloop
  endfacet
  facet normal 0.405973 -0.913765 0.0148251
    outer loop
      vertex 102.775 9.12176 -2.5
      vertex 102.733 9.21018 4.1
      vertex 102.726 9.20707 4.1
    endloop
  endfacet
  facet normal 0.406632 -0.913472 0.0148254
    outer loop
      vertex 102.733 9.21018 4.1
      vertex 102.775 9.12176 -2.5
      vertex 103.243 9.33009 -2.5
    endloop
  endfacet
  facet normal 0.207887 -0.97804 0.0148493
    outer loop
      vertex 103.744 9.43658 -2.5
      vertex 103.726 9.53296 4.1
      vertex 103.243 9.33009 -2.5
    endloop
  endfacet
  facet normal 0.194916 -0.980708 0.0148529
    outer loop
      vertex 103.726 9.53296 4.1
      vertex 103.744 9.43658 -2.5
      vertex 103.734 9.53455 4.1
    endloop
  endfacet
  facet normal 0.991343 -0.13044 0.0149745
    outer loop
      vertex 101.506 7.52226 4.1
      vertex 101.604 7.50938 -2.5
      vertex 101.507 7.52986 4.1
    endloop
  endfacet
  facet normal 0.994316 -0.105409 0.0149698
    outer loop
      vertex 101.604 7.50938 -2.5
      vertex 101.506 7.52226 4.1
      vertex 101.55 7 -2.5
    endloop
  endfacet
  facet normal 0.951106 -0.308504 0.0149357
    outer loop
      vertex 101.604 7.50938 -2.5
      vertex 101.669 8.0293 4.1
      vertex 101.507 7.52986 4.1
    endloop
  endfacet
endsolid OpenSCAD_Model
